<?xml version="1.0" standalone="no"?>
<!DOCTYPE svg PUBLIC "-//W3C//DTD SVG 1.1//EN" "http://www.w3.org/Graphics/SVG/1.1/DTD/svg11.dtd" >
<svg xmlns="http://www.w3.org/2000/svg" xmlns:xlink="http://www.w3.org/1999/xlink" version="1.1">
<metadata></metadata>
<defs>
<font id="fzhei-b01sregular" horiz-adv-x="1136" vert-adv-y="2048" >
<font-face units-per-em="2048" ascent="1632" descent="-416" />
<missing-glyph horiz-adv-x="568" />
<glyph horiz-adv-x="0" vert-adv-y="0" />
<glyph horiz-adv-x="682" />
<glyph unicode=" "  horiz-adv-x="568" />
<glyph unicode="&#x09;" horiz-adv-x="568" />
<glyph unicode="&#xa0;" horiz-adv-x="568" />
<glyph unicode="!" horiz-adv-x="568" d="M184 0v208h200v-208h-200zM184 984v480h200v-480l-48 -632h-104z" />
<glyph unicode="&#x22;" horiz-adv-x="720" d="M144 944v520h152v-520h-152zM432 944v520h152v-520h-152z" />
<glyph unicode="#" d="M56 424l16 136h216l40 288h-216l16 128h216l56 432h144l-64 -432h248l64 432h136l-56 -432h208l-16 -128h-208l-40 -288h208l-24 -136h-208l-64 -424h-128l56 424h-256l-56 -424h-136l64 424h-216zM416 560h256l40 288h-256z" />
<glyph unicode="$" d="M64 432h176q0 -304 280 -320v536q-432 88 -424 408q32 368 424 400v128h96v-128q400 -48 416 -392h-176q-16 200 -240 240v-488q288 -80 352 -160q96 -80 96 -256q-8 -400 -448 -424v-192h-96v192q-464 16 -456 456zM272 1072q0 -200 248 -232v464q-232 -16 -248 -232z M616 112q256 8 264 256q-8 168 -160 224l-104 40v-520z" />
<glyph unicode="%" horiz-adv-x="1816" d="M80 1080q32 312 344 344q320 -32 352 -344q-32 -336 -352 -360q-312 32 -344 360zM216 1080q8 -192 208 -208q192 16 208 208q-16 184 -208 200q-184 -24 -208 -200zM448 -24l808 1464h112l-808 -1464h-112zM1040 336q32 312 352 344q320 -24 344 -344 q-24 -312 -344 -336q-328 16 -352 336zM1184 336q16 -192 208 -208q192 16 208 208q-16 184 -208 200q-192 -16 -208 -200z" />
<glyph unicode="&#x26;" horiz-adv-x="1360" d="M88 352q-32 288 328 464q-168 184 -152 328q24 304 352 320q304 -8 328 -296q8 -224 -264 -384l264 -328q40 112 56 232h176q-16 -192 -120 -368l264 -320h-232l-144 168q-160 -192 -424 -184q-400 8 -432 368zM272 368q8 -216 264 -248q200 0 320 168l-336 400 q-264 -136 -248 -320zM440 1152q0 -112 144 -256q184 120 184 256q0 160 -160 160t-168 -160z" />
<glyph unicode="'" horiz-adv-x="384" d="M120 944v520h152v-520h-152z" />
<glyph unicode="(" horiz-adv-x="672" d="M136 536q-8 464 344 960h128q-176 -320 -224 -496q-56 -208 -56 -520q-16 -352 280 -888h-120q-368 520 -352 944z" />
<glyph unicode=")" horiz-adv-x="672" d="M72 -408q8 24 32 64q264 432 248 936q16 352 -280 904h112q376 -520 360 -952q16 -464 -352 -952h-120z" />
<glyph unicode="*" horiz-adv-x="792" d="M80 1208l40 112l216 -80v224h120v-224l216 80l40 -112l-224 -72l144 -184l-104 -72l-136 192l-128 -192l-104 72l144 184z" />
<glyph unicode="+" horiz-adv-x="1192" d="M80 440v152h448v440h144v-440h440v-152h-440v-440h-144v440h-448z" />
<glyph unicode="," horiz-adv-x="568" d="M176 0v216h216v-200q0 -264 -216 -304v104q112 16 112 184h-112z" />
<glyph unicode="-" horiz-adv-x="1192" d="M80 440v152h1032v-152h-1032z" />
<glyph unicode="." horiz-adv-x="568" d="M176 0v216h216v-216h-216z" />
<glyph unicode="/" horiz-adv-x="568" d="M-16 -24l480 1528h136l-496 -1528h-120z" />
<glyph unicode="0" d="M72 696q16 736 496 744q472 -16 496 -744q-16 -712 -496 -720q-480 8 -496 720zM272 696q0 -576 296 -576q304 8 304 576q0 576 -304 576q-296 0 -296 -576z" />
<glyph unicode="1" d="M200 1016v144q360 -16 392 280h136v-1440h-184v1016h-344z" />
<glyph unicode="2" d="M56 0q8 392 336 568l192 112q280 144 264 336q-16 248 -288 256q-280 0 -288 -352h-184q8 504 496 520q432 -24 456 -432q16 -296 -392 -480l-152 -88q-216 -120 -240 -272h784v-168h-984z" />
<glyph unicode="3" d="M72 440h184q8 -320 304 -320q296 16 312 280q0 264 -328 264h-88v152h96q264 8 272 232q-16 216 -264 224q-272 0 -280 -304h-176q8 464 464 472q416 -16 440 -376q0 -224 -176 -304v-8q240 -72 240 -328q-24 -432 -520 -448q-168 0 -264 48q-208 96 -216 416z" />
<glyph unicode="4" d="M48 352v176l656 912h152v-936h216v-152h-216v-352h-176v352h-632zM216 504h464v656h-8z" />
<glyph unicode="5" d="M64 360h184q32 -248 312 -248q272 24 296 328q-16 304 -312 320q-168 0 -272 -136l-152 8l104 776h744v-176h-608l-56 -392q120 88 272 88q448 -40 480 -464q-32 -480 -528 -488q-424 8 -464 384z" />
<glyph unicode="6" d="M80 664q16 760 528 776q384 -24 424 -384h-176q-40 216 -248 216q-312 -16 -344 -528l8 -8q96 176 336 176q440 -32 456 -456q0 -208 -144 -360q-104 -128 -360 -120q-248 8 -376 192q-104 176 -104 496zM288 440q16 -312 304 -320q264 16 280 328q-16 296 -288 304 q-280 -8 -296 -312z" />
<glyph unicode="7" d="M72 1232v176h1000v-160q-464 -520 -600 -1248h-192q104 624 584 1232h-792z" />
<glyph unicode="8" d="M80 408q0 256 240 352q-192 72 -192 288q32 384 432 392q408 -16 440 -368q0 -216 -176 -312q232 -96 232 -344q-24 -424 -488 -440q-200 8 -344 96q-152 112 -144 336zM272 408q16 -280 304 -288q288 8 288 272q-8 272 -296 280q-280 -8 -296 -264zM312 1056 q16 -208 256 -224q240 16 256 232q-16 200 -272 208q-224 -8 -240 -216z" />
<glyph unicode="9" d="M88 944q24 480 464 496q488 -8 504 -664q-32 -784 -528 -800q-392 8 -424 368h176q32 -232 248 -232q280 -8 344 536h-8q-88 -160 -328 -168q-432 24 -448 464zM272 952q0 -320 296 -312q264 16 272 328q-8 296 -288 304q-264 -16 -280 -320z" />
<glyph unicode=":" horiz-adv-x="568" d="M176 0v216h216v-216h-216zM176 840v216h216v-216h-216z" />
<glyph unicode=";" horiz-adv-x="568" d="M176 0v216h216v-200q0 -264 -216 -304v104q112 16 112 184h-112zM176 840v216h216v-216h-216z" />
<glyph unicode="&#x3c;" horiz-adv-x="1192" d="M96 440v152l1000 416v-160l-800 -328l800 -336v-160z" />
<glyph unicode="=" horiz-adv-x="1192" d="M80 232v152h1032v-152h-1032zM80 648v152h1032v-152h-1032z" />
<glyph unicode="&#x3e;" horiz-adv-x="1192" d="M96 24v160l800 336l-800 328v160l1000 -416v-152z" />
<glyph unicode="?" d="M112 1008q0 272 168 384q128 96 296 96q408 -24 424 -400q16 -160 -184 -344q-208 -144 -184 -368h-176q-24 256 192 440l24 24q168 144 144 256q-24 232 -248 240q-272 0 -272 -328h-184zM448 0v208h200v-208h-200z" />
<glyph unicode="@" horiz-adv-x="2072" d="M304 736q64 704 768 768q648 -56 704 -632q-40 -496 -488 -592q-120 0 -136 128v-8q-120 -120 -248 -120q-272 24 -296 328q48 520 472 560q160 0 232 -160l40 128h136l-96 -360q-88 -288 -80 -312q0 -48 40 -56q248 64 288 448q-32 488 -568 528q-576 -48 -624 -664 q48 -584 640 -632q296 8 496 232h136q-208 -328 -640 -344q-720 48 -776 760zM776 624q8 -192 168 -200q256 40 304 408q-16 176 -168 192q-264 -32 -304 -400z" />
<glyph unicode="A" horiz-adv-x="1360" d="M32 0l552 1464h224l528 -1464h-216l-144 424h-592l-152 -424h-200zM448 600h456l-216 648h-8z" />
<glyph unicode="B" horiz-adv-x="1360" d="M152 0v1464h648q392 -16 408 -368q0 -216 -192 -304q272 -96 272 -360q-24 -416 -504 -432h-632zM352 168h424q304 8 312 264q0 248 -352 248h-384v-512zM352 848h352h19q285 0 285 228v12q0 216 -304 216h-352v-456z" />
<glyph unicode="C" horiz-adv-x="1472" d="M88 736q32 736 688 768q520 -16 600 -472h-192q-72 296 -408 304q-464 -24 -480 -592q0 -608 488 -608q336 8 416 408h192q-88 -552 -648 -568q-640 24 -656 760z" />
<glyph unicode="D" horiz-adv-x="1472" d="M160 0v1464h600q592 -32 616 -712q-32 -736 -624 -752h-592zM360 168h384q416 24 432 568q-8 552 -448 568h-368v-1136z" />
<glyph unicode="E" horiz-adv-x="1360" d="M176 0v1464h1064v-168h-864v-456h800v-176h-800v-488h880v-176h-1080z" />
<glyph unicode="F" horiz-adv-x="1240" d="M176 0v1464h1016v-168h-816v-456h720v-176h-720v-664h-200z" />
<glyph unicode="G" horiz-adv-x="1592" d="M96 744q56 728 696 760q544 -32 624 -480h-192q-80 304 -440 312q-456 -32 -480 -600q0 -608 488 -608q176 0 304 96q152 122 152 367v25h-448v168h640v-784h-128l-48 184q-168 -200 -480 -208q-296 0 -456 152q-232 217 -232 591v25z" />
<glyph unicode="H" horiz-adv-x="1472" d="M152 0v1464h200v-600h768v600h200v-1464h-200v680h-768v-680h-200z" />
<glyph unicode="I" horiz-adv-x="568" d="M184 0v1464h200v-1464h-200z" />
<glyph unicode="J" horiz-adv-x="1024" d="M32 328v144h184v-104q0 -240 224 -240q232 0 232 256v1080h200v-1072q-8 -408 -424 -416q-392 8 -416 352z" />
<glyph unicode="K" horiz-adv-x="1360" d="M152 0v1464h200v-712l712 712h280l-616 -592l632 -872h-264l-512 736l-232 -216v-520h-200z" />
<glyph unicode="L" d="M152 0v1464h200v-1288h744v-176h-944z" />
<glyph unicode="M" horiz-adv-x="1696" d="M144 0v1464h288l424 -1240l416 1240h288v-1464h-192v864v368l-416 -1232h-200l-408 1232h-8q0 -88 8 -264v-104v-864h-200z" />
<glyph unicode="N" horiz-adv-x="1472" d="M152 0v1464h240l736 -1184v1184h192v-1464h-224l-744 1184h-8v-1184h-192z" />
<glyph unicode="O" horiz-adv-x="1592" d="M80 728q40 760 720 776q664 -24 712 -776q-48 -728 -712 -752q-672 24 -720 752zM288 728q24 -568 512 -592q480 32 512 592q-32 576 -512 608q-488 -24 -512 -608z" />
<glyph unicode="P" horiz-adv-x="1360" d="M176 0v1464h664q416 -16 432 -408q-24 -424 -432 -440h-464v-616h-200zM376 792h392q304 0 304 264q0 240 -296 248h-400v-512z" />
<glyph unicode="Q" horiz-adv-x="1592" d="M80 728q40 760 720 776q664 -24 712 -776q-8 -352 -208 -568l192 -152l-96 -104l-224 152q-144 -80 -376 -80q-672 24 -720 752zM288 728q24 -568 512 -592q120 0 208 48l-152 120l104 120l184 -144q168 168 168 448q-32 576 -512 608q-488 -24 -512 -608z" />
<glyph unicode="R" horiz-adv-x="1472" d="M176 0v1464h680q488 0 488 -392q0 -240 -208 -352q176 -48 176 -280l16 -264q-1 -10 -1 -20q0 -95 73 -124v-32h-248q-24 104 -32 368v15q0 249 -264 249h-480v-632h-200zM376 800h464q296 0 296 256q0 248 -264 248h-496v-504z" />
<glyph unicode="S" horiz-adv-x="1360" d="M96 472h192q8 -336 400 -344q384 8 392 248q3 17 3 32q0 173 -323 232l-304 64q-312 88 -312 352q24 432 512 448q552 0 568 -464h-184q-16 280 -368 296q-328 -8 -328 -256q0 -160 176 -184l416 -96q328 -80 328 -400q-8 -408 -576 -424q-312 0 -440 128 q-152 114 -152 345v23z" />
<glyph unicode="T" horiz-adv-x="1240" d="M32 1296v168h1184v-168h-496v-1296h-192v1296h-496z" />
<glyph unicode="U" horiz-adv-x="1472" d="M160 488v976h200v-920q8 -400 368 -408q392 8 392 408v920h200v-944q-24 -528 -600 -544q-536 16 -560 512z" />
<glyph unicode="V" horiz-adv-x="1360" d="M40 1464h224l416 -1248l424 1248h224l-536 -1464h-216z" />
<glyph unicode="W" horiz-adv-x="1928" d="M32 1464h208l280 -1192h8l328 1192h216l328 -1192h8l272 1192h216l-384 -1464h-208l-336 1216h-8l-336 -1216h-208z" />
<glyph unicode="X" horiz-adv-x="1360" d="M40 0l528 752l-496 712h248l368 -560l376 560h240l-496 -712l520 -752h-248l-400 600l-400 -600h-240z" />
<glyph unicode="Y" horiz-adv-x="1360" d="M32 1464h232l416 -704l424 704h232l-552 -872v-592h-200v592z" />
<glyph unicode="Z" horiz-adv-x="1240" d="M48 0v160l896 1136h-832v168h1088v-168l-904 -1120h904v-176h-1152z" />
<glyph unicode="[" horiz-adv-x="568" d="M128 -384v1856h384v-136h-224v-1576h224v-144h-384z" />
<glyph unicode="\" horiz-adv-x="568" d="M-16 1504h112l504 -1528h-136z" />
<glyph unicode="]" horiz-adv-x="568" d="M56 -240h224v1576h-224v136h384v-1856h-384v144z" />
<glyph unicode="^" horiz-adv-x="672" d="M40 1208l200 288h192l208 -288h-168l-136 192l-136 -192h-160z" />
<glyph unicode="_" d="M0 -136h1136v-104h-1136v104z" />
<glyph unicode="`" horiz-adv-x="672" d="M32 1496h216l184 -288h-136z" />
<glyph unicode="a" d="M72 280q8 288 328 336l296 32q96 16 96 128q0 176 -256 176q-224 0 -240 -208h-168q8 360 440 360q384 -16 392 -304v-616q0 -64 64 -64h24q24 8 40 8v-128h-40q-40 -8 -64 -8q-184 0 -184 140v12q-160 -160 -392 -160q-320 16 -336 296zM264 304q0 -184 184 -184 q312 24 336 248v176q-64 -40 -296 -72q-224 -16 -224 -168z" />
<glyph unicode="b" d="M120 0v1464h176v-528h8q96 160 304 168q424 -24 448 -536q-24 -568 -472 -584q-200 0 -288 144h-8v-128h-168zM288 480q8 -336 296 -360q280 8 288 416v20q0 380 -296 380q-288 0 -288 -456z" />
<glyph unicode="c" horiz-adv-x="1024" d="M64 504q16 584 512 600q352 -8 400 -400h-176q-24 232 -248 232q-288 -16 -304 -400q0 -416 296 -416q216 16 256 256h176q-64 -384 -432 -392q-464 16 -480 520z" />
<glyph unicode="d" d="M72 568q24 512 448 536q168 0 304 -160q8 -16 16 -24v8v536h176v-1464h-168v144q-96 -160 -304 -160q-448 16 -472 584zM256 536q16 -400 288 -416q288 32 296 360q0 456 -288 456q-296 0 -296 -380v-20z" />
<glyph unicode="e" d="M80 504q16 584 512 600q456 -8 464 -632h-784q0 -352 312 -352q224 16 280 216h176q-32 -184 -192 -296q-88 -56 -288 -56q-456 16 -480 520zM272 616h600q-24 320 -304 320q-264 -24 -296 -320z" />
<glyph unicode="f" horiz-adv-x="568" d="M32 920v152h144v176q0 240 272 240q48 0 88 -8v-152h-80q-104 0 -104 -128v-128h184v-152h-184v-920h-176v920h-144z" />
<glyph unicode="g" d="M80 568q24 512 448 536q200 0 320 -184v152h168v-984v-32q0 -488 -488 -488q-376 0 -416 320h184q32 -176 240 -176q305 0 305 327q0 16 -1 33v48v-8q-96 -128 -288 -128q-448 16 -472 584zM272 536q8 -408 288 -416q280 24 288 360v24q0 432 -288 432t-288 -379v-21z " />
<glyph unicode="h" d="M128 0v1464h184v-536h8q128 176 312 176q360 -8 368 -376v-728h-176v696v17q0 223 -202 223h-14q-288 -8 -296 -352v-584h-184z" />
<glyph unicode="i" horiz-adv-x="448" d="M136 0v1072h184v-1072h-184zM136 1264v200h184v-200h-184z" />
<glyph unicode="j" horiz-adv-x="448" d="M-16 -256h24q14 -2 26 -2q104 0 104 109q0 14 -2 29v1192h184v-1208v-15q0 -257 -280 -257h-56v152zM136 1264v200h184v-200h-184z" />
<glyph unicode="k" horiz-adv-x="1024" d="M136 0v1464h176v-848l464 456h224l-408 -400l432 -672h-232l-336 544l-144 -144v-400h-176z" />
<glyph unicode="l" horiz-adv-x="448" d="M136 0v1464h184v-1464h-184z" />
<glyph unicode="m" horiz-adv-x="1696" d="M128 0v1072h176v-152q120 184 328 184q184 0 272 -168l8 -8q138 176 313 176h15q328 -24 336 -368v-736h-184v688v19q0 230 -188 229h-12q-224 -24 -248 -288v-648h-184v736q0 200 -168 200q-272 -16 -280 -352v-584h-184z" />
<glyph unicode="n" d="M128 0v1072h176v-152q128 184 328 184q360 -8 368 -376v-728h-176v656q1 18 1 35q0 246 -208 246q-12 0 -25 -1q-272 -16 -280 -352v-584h-184z" />
<glyph unicode="o" d="M72 536q32 544 496 568q464 -24 496 -568q-32 -536 -496 -552q-464 16 -496 552zM256 536q24 -400 312 -408q288 8 312 408q-24 400 -312 408q-288 -8 -312 -408z" />
<glyph unicode="p" d="M120 -408v1480h168v-152h8l8 8q112 176 304 176q424 -24 448 -536q-24 -568 -472 -584q-184 0 -280 128h-8v-520h-176zM288 480q8 -336 296 -360q280 8 288 416v20q0 380 -296 380q-288 0 -288 -456z" />
<glyph unicode="q" d="M72 568q24 512 448 536q168 0 304 -160q8 -16 16 -24v152h168v-1480h-176v520h-8q-88 -120 -280 -128q-448 16 -472 584zM256 536q16 -400 288 -416q288 32 296 360q0 456 -288 456q-296 0 -296 -380v-20z" />
<glyph unicode="r" horiz-adv-x="672" d="M152 0v1072h176v-184q120 216 304 216q16 0 32 -8h16v-192h-72q-256 -16 -272 -280v-624h-184z" />
<glyph unicode="s" horiz-adv-x="1024" d="M64 344h168q16 -224 296 -224q232 8 240 176q1 6 1 13q0 87 -209 139l-216 48q-248 64 -248 256q16 328 408 352q384 -8 408 -344h-176q0 184 -256 184q-200 -8 -208 -152q-1 -7 -1 -15q0 -92 193 -129l184 -40q296 -70 296 -277v-11q-16 -320 -416 -336q-456 0 -464 360 z" />
<glyph unicode="t" horiz-adv-x="568" d="M32 920v152h136v296h184v-296h176v-152h-176v-696q0 -88 104 -88h72v-136h-112h-24q-224 0 -224 194v14v712h-136z" />
<glyph unicode="u" d="M136 304v768h184v-712q0 -240 208 -240q272 8 296 360v592h176v-1072h-168v152l-8 8q-107 -176 -325 -176h-19q-336 16 -344 320z" />
<glyph unicode="v" horiz-adv-x="1024" d="M16 1072h208l272 -880h8l304 880h192l-400 -1072h-192z" />
<glyph unicode="w" horiz-adv-x="1472" d="M32 1072h192l200 -848h8l208 848h200l208 -848h8l208 848h184l-312 -1072h-184l-216 832h-8l-200 -832h-192z" />
<glyph unicode="x" horiz-adv-x="1024" d="M24 0l376 552l-360 520h232l248 -384l248 384h216l-360 -520l376 -552h-224l-272 400l-256 -400h-224z" />
<glyph unicode="y" horiz-adv-x="1024" d="M24 1072h200l288 -880h8l280 880h200q-40 -104 -112 -312q-176 -488 -272 -736q-136 -336 -192 -376q-50 -65 -198 -65q-16 0 -34 1q-32 0 -72 16v160q8 0 16 -8q48 -16 88 -16q13 -5 25 -5q90 0 167 253z" />
<glyph unicode="z" horiz-adv-x="1024" d="M64 0v136l640 784h-592v152h824v-152l-632 -776h656v-144h-896z" />
<glyph unicode="{" horiz-adv-x="680" d="M88 472v128q144 24 160 264v344q8 248 208 264h144v-128h-96q-96 0 -96 -168v-344q-16 -224 -176 -288v-8q160 -64 176 -296v-320q0 -176 96 -176h96v-128h-144q-192 24 -208 264v328q-8 248 -160 264z" />
<glyph unicode="|" horiz-adv-x="528" d="M192 -24v1528h152v-1528h-152z" />
<glyph unicode="}" horiz-adv-x="680" d="M88 -256h88q88 8 96 176v320q16 232 176 296v8q-160 64 -176 288v344q-8 160 -96 168h-88v128h128q208 -16 216 -264v-344q8 -248 168 -264v-128q-160 -8 -168 -264v-328q-16 -248 -216 -264h-128v128z" />
<glyph unicode="~" horiz-adv-x="1192" d="M120 480q96 176 256 176q72 0 232 -64q136 -64 208 -72q88 -8 176 144l80 -112q-112 -176 -256 -176q-88 0 -208 64q-128 80 -240 80q-104 0 -176 -152z" />
<glyph unicode="&#xa4;" horiz-adv-x="2048" d="M512 296l112 112q-104 120 -104 304q0 192 104 312l-112 112l96 96l112 -112q136 104 304 104t296 -104l112 112l104 -96l-112 -112q96 -120 96 -312q-8 -184 -96 -304l104 -112l-88 -96l-112 120q-136 -112 -304 -112q-192 0 -312 112l-104 -120zM672 712 q32 -328 352 -360q128 0 240 96q112 112 112 264q-32 336 -352 368q-320 -32 -352 -368z" />
<glyph unicode="&#xa7;" horiz-adv-x="2048" d="M544 632q-8 224 200 320q-104 104 -96 208q24 336 368 344q368 -8 376 -368h-176q0 216 -200 216q-176 -8 -184 -168q0 -96 144 -184l304 -176q224 -128 216 -328q0 -200 -200 -328q104 -112 104 -216q-24 -296 -368 -328q-400 8 -408 376h184q0 -216 192 -216 q216 8 216 168q8 72 -112 144l-432 288q-120 88 -128 248zM712 672q0 -112 96 -176l384 -248q8 0 16 8q136 96 128 200q0 120 -136 200l-352 216q-136 -64 -136 -200z" />
<glyph unicode="&#xa8;" horiz-adv-x="2048" d="M760 1232v208h184v-208h-184zM1096 1232v208h184v-208h-184z" />
<glyph unicode="&#xad;" horiz-adv-x="1192" d="M80 440v152h1032v-152h-1032z" />
<glyph unicode="&#xb0;" horiz-adv-x="2048" d="M112 1136q16 288 296 304q272 -24 296 -304q-24 -272 -296 -296q-280 16 -296 296zM208 1136q24 -184 200 -208q176 16 200 208q-24 200 -200 216q-176 -24 -200 -216z" />
<glyph unicode="&#xb1;" horiz-adv-x="2048" d="M504 0v144h1040v-144h-1040zM504 560v144h440v336h152v-336h448v-144h-448v-336h-152v336h-440z" />
<glyph unicode="&#xb7;" horiz-adv-x="2048" d="M832 712q16 176 192 192q176 -16 192 -192q-16 -168 -192 -184q-176 16 -192 184z" />
<glyph unicode="&#xd7;" horiz-adv-x="2048" d="M504 104l416 416l-416 408l104 112l416 -416l408 416l112 -112l-416 -408l416 -416l-112 -104l-408 408l-416 -408z" />
<glyph unicode="&#xe0;" horiz-adv-x="2048" d="M464 568q0 240 160 392q128 136 360 136q288 0 408 -184v16v160h192v-1088h-176v136h-8q-104 -152 -384 -152q-288 0 -408 152q-144 168 -144 432zM664 536q16 -400 360 -416q360 24 368 360q-8 448 -360 456q-360 0 -368 -400zM792 1504h216l184 -288h-136z" />
<glyph unicode="&#xe1;" horiz-adv-x="2048" d="M464 568q0 240 160 392q128 136 360 136q288 0 408 -184v16v160h192v-1088h-176v136h-8q-104 -152 -384 -152q-288 0 -408 152q-144 168 -144 432zM664 536q16 -400 360 -416q360 24 368 360q-8 448 -360 456q-360 0 -368 -400zM856 1216l264 288h136l-184 -288h-216z " />
<glyph unicode="&#xe8;" horiz-adv-x="2048" d="M448 496q8 312 200 480q152 120 408 120t384 -152q152 -160 152 -472h-936q32 -352 384 -352q288 16 352 208h184q-48 -184 -224 -288q-104 -56 -344 -56q-184 0 -320 64q-232 144 -240 448zM656 616h744q-40 312 -376 320q-328 -32 -368 -320zM712 1496h216l184 -288 h-136z" />
<glyph unicode="&#xe9;" horiz-adv-x="2048" d="M448 496q8 312 200 480q152 120 408 120t384 -152q152 -160 152 -472h-936q32 -352 384 -352q288 16 352 208h184q-48 -184 -224 -288q-104 -56 -344 -56q-184 0 -320 64q-232 144 -240 448zM656 616h744q-40 312 -376 320q-328 -32 -368 -320zM928 1216l264 288h144 l-184 -288h-224z" />
<glyph unicode="&#xea;" horiz-adv-x="2048" d="M448 496q8 312 200 480q152 120 408 120t384 -152q152 -160 152 -472h-936q32 -352 384 -352q288 16 352 208h184q-48 -184 -224 -288q-104 -56 -344 -56q-184 0 -320 64q-232 144 -240 448zM656 616h744q-40 312 -376 320q-328 -32 -368 -320zM720 1208l208 288h192 l200 -288h-160l-136 192l-136 -192h-168z" />
<glyph unicode="&#xec;" horiz-adv-x="2048" d="M824 1496h216l184 -288h-136zM920 0v1072h200v-1072h-200z" />
<glyph unicode="&#xed;" horiz-adv-x="2048" d="M824 1216l264 288h136l-184 -288h-216zM920 0v1072h200v-1072h-200z" />
<glyph unicode="&#xf2;" horiz-adv-x="2048" d="M440 536q40 536 584 560q536 -24 576 -560q0 -216 -120 -368q-144 -184 -456 -184q-296 0 -440 152q-136 160 -144 400zM640 536q32 -408 384 -416q352 8 384 416q-32 392 -384 408q-352 -16 -384 -408zM712 1496h216l184 -288h-136z" />
<glyph unicode="&#xf3;" horiz-adv-x="2048" d="M440 536q40 536 584 560q536 -24 576 -560q0 -216 -120 -368q-144 -184 -456 -184q-296 0 -440 152q-136 160 -144 400zM640 536q32 -408 384 -416q352 8 384 416q-32 392 -384 408q-352 -16 -384 -408zM936 1216l264 288h144l-184 -288h-224z" />
<glyph unicode="&#xf7;" horiz-adv-x="2048" d="M504 440v152h1040v-152h-1040zM880 96q8 128 144 136q128 -8 136 -136q-16 -104 -136 -120q-136 8 -144 120zM880 928q16 136 144 144q120 -16 136 -144q-16 -120 -136 -136q-128 16 -144 136z" />
<glyph unicode="&#xf9;" horiz-adv-x="2048" d="M496 296v768h208v-712q0 -224 264 -232q216 0 296 120q80 104 80 232v592h200v-1064h-192v152q-160 -176 -432 -168q-416 8 -424 312zM704 1496h224l184 -288h-136z" />
<glyph unicode="&#xfa;" horiz-adv-x="2048" d="M496 296v768h208v-712q0 -224 264 -232q216 0 296 120q80 104 80 232v592h200v-1064h-192v152q-160 -176 -432 -168q-416 8 -424 312zM928 1216l264 288h144l-184 -288h-224z" />
<glyph unicode="&#xfc;" horiz-adv-x="2048" d="M496 296v768h208v-712q0 -224 264 -232q216 0 296 120q80 104 80 232v592h200v-1064h-192v152q-160 -176 -432 -168q-416 8 -424 312zM760 1232v208h184v-208h-184zM1096 1232v208h184v-208h-184z" />
<glyph unicode="&#x2000;" horiz-adv-x="816" vert-adv-y="0" />
<glyph unicode="&#x2001;" horiz-adv-x="1632" vert-adv-y="0" />
<glyph unicode="&#x2002;" horiz-adv-x="816" vert-adv-y="0" />
<glyph unicode="&#x2003;" horiz-adv-x="1632" vert-adv-y="0" />
<glyph unicode="&#x2004;" horiz-adv-x="544" vert-adv-y="0" />
<glyph unicode="&#x2005;" horiz-adv-x="408" vert-adv-y="0" />
<glyph unicode="&#x2006;" horiz-adv-x="272" vert-adv-y="0" />
<glyph unicode="&#x2007;" horiz-adv-x="272" vert-adv-y="0" />
<glyph unicode="&#x2008;" horiz-adv-x="204" vert-adv-y="0" />
<glyph unicode="&#x2009;" horiz-adv-x="326" vert-adv-y="0" />
<glyph unicode="&#x200a;" horiz-adv-x="90" vert-adv-y="0" />
<glyph unicode="&#x2010;" horiz-adv-x="1192" d="M80 440v152h1032v-152h-1032z" />
<glyph unicode="&#x2011;" horiz-adv-x="1192" d="M80 440v152h1032v-152h-1032z" />
<glyph unicode="&#x2012;" horiz-adv-x="1192" d="M80 440v152h1032v-152h-1032z" />
<glyph unicode="&#x2013;" horiz-adv-x="1184" d="M80 440v152h1024v-152h-1024z" />
<glyph unicode="&#x2014;" horiz-adv-x="2048" d="M0 608v176h2040v-176h-2040z" />
<glyph unicode="&#x2018;" horiz-adv-x="2048" d="M1384 984v304q48 288 280 320v-128q-88 -40 -104 -120v-48h128v-328h-304z" />
<glyph unicode="&#x2019;" horiz-adv-x="2048" d="M360 1296v312h304v-288q-16 -288 -280 -336v128q80 24 104 120v64h-128z" />
<glyph unicode="&#x201c;" horiz-adv-x="2048" d="M1152 1008v304q48 288 272 320v-128q-80 -48 -96 -120v-48h120v-328h-296zM1624 1008v304q24 272 280 320v-128q-40 -8 -64 -48q-40 -40 -40 -72v-48h120v-328h-296z" />
<glyph unicode="&#x201d;" horiz-adv-x="2048" d="M128 1320v312h304v-288q-16 -288 -280 -336v128q80 24 104 120v64h-128zM592 1320v312h304v-288q-24 -272 -280 -336v128q40 24 64 48l16 16q24 40 24 56v64h-128z" />
<glyph unicode="&#x2026;" horiz-adv-x="2048" d="M176 696q8 136 152 144q136 -8 144 -144q0 -144 -136 -144q-152 8 -160 144zM864 696q8 136 152 144q136 -8 144 -144q0 -144 -144 -144q-144 8 -152 144zM1568 696q8 136 152 144q144 -8 152 -144q-8 -136 -152 -144q-144 8 -152 144z" />
<glyph unicode="&#x202f;" horiz-adv-x="326" vert-adv-y="0" />
<glyph unicode="&#x205f;" horiz-adv-x="408" vert-adv-y="0" />
<glyph unicode="&#x20ac;" horiz-adv-x="1720" d="M88 584l40 64h208v96q0 72 8 120h-256l40 64h224q120 560 672 576q520 -16 600 -472h-192q-72 296 -408 304q-376 -16 -464 -408h712l-40 -64h-680q-8 -48 -8 -120v-96h640l-24 -64h-608q64 -448 480 -448q336 16 416 408h192q-88 -552 -648 -568q-560 24 -648 608h-256z " />
<glyph unicode="&#x25fc;" horiz-adv-x="1080" vert-adv-y="2160" d="M0 0v1080h1080v-1080h-1080z" />
</font>
</defs>
</svg>
